<svg width="20" height="20" viewBox="0 0 20 20" fill="none" xmlns="http://www.w3.org/2000/svg">
<path fill-rule="evenodd" clip-rule="evenodd" d="M19 2.96675C19 3.50067 18.5523 3.9335 18 3.9335H2C1.44771 3.9335 1 3.50067 1 2.96675C1 2.43283 1.44771 2 2 2H18C18.5523 2 19 2.43283 19 2.96675Z" fill="#0C5591"/>
<path fill-rule="evenodd" clip-rule="evenodd" d="M15 9.41177C15 9.94569 14.5523 10.3785 14 10.3785H2C1.44772 10.3785 1 9.94569 1 9.41177C1 8.87784 1.44772 8.44501 2 8.44501H14C14.5523 8.44501 15 8.87784 15 9.41177Z" fill="#0C5591"/>
<path fill-rule="evenodd" clip-rule="evenodd" d="M12.3333 15.8568C12.3333 16.3907 11.8856 16.8235 11.3333 16.8235H2C1.44772 16.8235 1 16.3907 1 15.8568C1 15.3229 1.44772 14.89 2 14.89H11.3333C11.8856 14.89 12.3333 15.3229 12.3333 15.8568Z" fill="#0C5591"/>
</svg>
