<svg width="20" height="30" viewBox="0 0 20 30" fill="none" xmlns="http://www.w3.org/2000/svg">
<mask id="mask0_83_979" style="mask-type:luminance" maskUnits="userSpaceOnUse" x="0" y="0" width="20" height="30">
<path d="M20 0H0V30H20V0Z" fill="white"/>
</mask>
<g mask="url(#mask0_83_979)">
<path d="M9.93984 3.45703C9.98124 2.40232 10.4781 1.58202 11.4305 0.996161C12.4243 0.527304 13.4181 0.527304 14.4119 0.996161C15.3643 1.58202 15.8612 2.40232 15.9026 3.45703C15.8612 4.51175 15.3643 5.33198 14.4119 5.91784C13.4181 6.3867 12.4243 6.3867 11.4305 5.91784C10.4781 5.33198 9.98124 4.51175 9.93984 3.45703ZM7.89017 12.3047C7.84876 12.3437 7.80734 12.3633 7.76594 12.3633C7.72454 12.3633 7.70382 12.3828 7.70382 12.4218L7.20693 12.5976C6.13033 13.0663 5.40569 13.8086 5.03303 14.8242L4.84668 15.293C4.68104 15.8008 4.34979 16.1523 3.85289 16.3476C3.39741 16.582 2.9005 16.621 2.3622 16.4648C1.8239 16.3085 1.43051 15.996 1.18206 15.5273C0.975021 15.0976 0.954347 14.6288 1.11998 14.121L1.24418 13.6523C2.03092 11.582 3.4802 10.0781 5.59201 9.1405L6.0889 8.96478C7.37255 8.41792 8.73899 8.14453 10.1883 8.14453C11.5961 8.14453 12.8591 8.49608 13.9771 9.19922C15.0951 9.94139 15.944 10.918 16.5237 12.1289L17.4554 14.2968L18.7597 14.8827C19.2566 15.1562 19.5879 15.5273 19.7535 15.996C19.9191 16.4648 19.8984 16.9335 19.6914 17.4023C19.4016 17.871 19.0082 18.1835 18.5113 18.3398C18.0144 18.496 17.5175 18.4766 17.0206 18.2812L15.3436 17.4609C14.681 17.1484 14.2049 16.6797 13.915 16.0547L13.356 14.707L12.1137 18.5156L15.2193 21.6797C15.5506 22.0312 15.7783 22.4413 15.9026 22.9101L17.3311 28.3008C17.4553 28.8086 17.3725 29.2773 17.0827 29.707C16.8342 30.1367 16.4409 30.4296 15.9026 30.5859C15.3229 30.7031 14.8053 30.6249 14.3498 30.3515C13.9357 30.1171 13.6458 29.7461 13.4802 29.2383L12.1137 24.082L7.70382 19.5117C6.79284 18.4961 6.503 17.3437 6.83426 16.0547L7.82802 12.3047H7.89017ZM4.28767 23.9648L5.84047 20.332C5.96469 20.4883 6.10961 20.6445 6.27525 20.8008L8.7597 23.4375L7.89017 25.5468C7.72453 25.8984 7.49679 26.2109 7.20693 26.4843L3.41811 30.1171C3.00403 30.4687 2.52785 30.6445 1.98954 30.6445C1.45123 30.6445 0.975044 30.4687 0.560965 30.1171C0.188295 29.7265 0.00195312 29.2773 0.00195312 28.7695C0.00195312 28.2617 0.188295 27.8124 0.560965 27.4218L4.28767 23.9648Z" fill="#14AE5C"/>
</g>
</svg>
