<svg width="24" height="27" viewBox="0 0 24 27" fill="none" xmlns="http://www.w3.org/2000/svg">
<mask id="mask0_83_950" style="mask-type:luminance" maskUnits="userSpaceOnUse" x="0" y="3" width="24" height="21">
<path d="M24 3.83594H0V23.0359H24V3.83594Z" fill="white"/>
</mask>
<g mask="url(#mask0_83_950)">
<path d="M7.2 5.78125C7.225 5.28649 7.39999 4.8659 7.725 4.51953C8.075 4.19793 8.5 4.02476 9 4H15C15.5 4.02476 15.925 4.19793 16.275 4.51953C16.6 4.8659 16.775 5.28649 16.8 5.78125V23H13.8V20.0312C13.775 19.5365 13.6 19.1159 13.275 18.7695C12.925 18.4479 12.5 18.2747 12 18.25C11.5 18.2747 11.075 18.4479 10.725 18.7695C10.4 19.1159 10.225 19.5365 10.2 20.0312V23H7.2V5.78125ZM1.8 7.5625H6V23H1.8C1.3 22.9753 0.875 22.8021 0.525 22.4805C0.2 22.1341 0.025 21.7135 0 21.2188V15.875H3C3.375 15.8503 3.575 15.6523 3.6 15.2812C3.575 14.9102 3.375 14.7122 3 14.6875H0V12.3125H3C3.375 12.2877 3.575 12.0898 3.6 11.7188C3.575 11.3477 3.375 11.1498 3 11.125H0V9.34375C0.025 8.84899 0.2 8.4284 0.525 8.08203C0.875 7.76042 1.3 7.58726 1.8 7.5625ZM22.2 7.5625C22.7 7.58726 23.125 7.76042 23.475 8.08203C23.8 8.4284 23.975 8.84899 24 9.34375V11.125H21C20.625 11.1498 20.425 11.3477 20.4 11.7188C20.425 12.0898 20.625 12.2877 21 12.3125H24V14.6875H21C20.625 14.7122 20.425 14.9102 20.4 15.2812C20.425 15.6523 20.625 15.8503 21 15.875H24V21.2188C23.975 21.7135 23.8 22.1341 23.475 22.4805C23.125 22.8021 22.7 22.9753 22.2 23H18V7.5625H22.2ZM11.7 6.375C11.325 6.39976 11.125 6.59768 11.1 6.96875V7.85938H10.2C9.82502 7.88414 9.62502 8.08206 9.6 8.45312V9.04688C9.62502 9.41794 9.82502 9.61586 10.2 9.64062H11.1V10.5312C11.125 10.9023 11.325 11.1002 11.7 11.125H12.3C12.675 11.1002 12.875 10.9023 12.9 10.5312V9.64062H13.8C14.175 9.61586 14.375 9.41794 14.4 9.04688V8.45312C14.375 8.08206 14.175 7.88414 13.8 7.85938H12.9V6.96875C12.875 6.59768 12.675 6.39976 12.3 6.375H11.7Z" fill="currentColor"/>
</g>
</svg>
