<svg width="16" height="16" viewBox="0 0 16 16" fill="none" xmlns="http://www.w3.org/2000/svg">
<path fill-rule="evenodd" clip-rule="evenodd" d="M1.59246 9.28151C-0.530818 7.15824 -0.530818 3.71573 1.59246 1.59246C3.71573 -0.530818 7.15824 -0.530818 9.28151 1.59246L11.204 3.51494L11.1085 4.01042L11.1066 4.01899C11.1044 4.02911 11.1002 4.04738 11.0936 4.07333C11.0805 4.12522 11.0581 4.20777 11.0231 4.31719C10.9532 4.53604 10.8335 4.86213 10.6391 5.26542C10.2508 6.07114 9.56328 7.18779 8.37522 8.37585C7.18717 9.5639 6.07062 10.2513 5.26502 10.6395C4.86179 10.8339 4.53575 10.9535 4.31695 11.0234C4.20755 11.0583 4.12503 11.0808 4.07315 11.0939C4.04721 11.1004 4.02895 11.1046 4.01883 11.1069L4.01027 11.1087L3.51505 11.2041L1.59246 9.28151ZM7.53033 2.46967C7.23744 2.17678 6.76256 2.17678 6.46967 2.46967C6.17678 2.76256 6.17678 3.23744 6.46967 3.53033L7.96967 5.03033C8.26256 5.32322 8.73744 5.32322 9.03033 5.03033C9.32322 4.73744 9.32322 4.26256 9.03033 3.96967L7.53033 2.46967Z" fill="#6B7280"/>
<path d="M12.452 4.77358L12.4546 4.76552L14.4075 6.71849C16.5308 8.84177 16.5308 12.2843 14.4075 14.4075C12.2843 16.5308 8.84176 16.5308 6.71849 14.4075L4.76568 12.4547L4.77321 12.4523C5.0535 12.3628 5.44514 12.2178 5.91621 11.9908C6.85922 11.5364 8.11781 10.7546 9.43588 9.43651C10.754 8.11843 11.5358 6.85976 11.9904 5.91667C12.2174 5.44556 12.3625 5.05389 12.452 4.77358Z" fill="#6B7280"/>
</svg>
