<svg width="36" height="36" viewBox="0 0 36 36" fill="none" xmlns="http://www.w3.org/2000/svg">
<path fill-rule="evenodd" clip-rule="evenodd" d="M11.3887 16.9223C8.20377 13.7374 8.20377 8.57359 11.3887 5.38868C14.5736 2.20377 19.7374 2.20377 22.9223 5.38868L25.806 8.27241L25.6627 9.01563L25.66 9.02848C25.6566 9.04367 25.6503 9.07107 25.6405 9.10999C25.6208 9.18784 25.5871 9.31166 25.5347 9.47578C25.4298 9.80406 25.2502 10.2932 24.9587 10.8981C24.3762 12.1067 23.3449 13.7817 21.5628 15.5638C19.7808 17.3459 18.1059 18.377 16.8975 18.9593C16.2927 19.2508 15.8036 19.4303 15.4754 19.5351C15.3113 19.5875 15.1875 19.6212 15.1097 19.6408C15.0708 19.6506 15.0434 19.6569 15.0282 19.6603L15.0154 19.6631L14.2726 19.8062L11.3887 16.9223ZM20.2955 6.7045C19.8562 6.26516 19.1438 6.26516 18.7045 6.7045C18.2652 7.14384 18.2652 7.85616 18.7045 8.2955L20.9545 10.5455C21.3938 10.9848 22.1062 10.9848 22.5455 10.5455C22.9848 10.1062 22.9848 9.39384 22.5455 8.9545L20.2955 6.7045Z" fill="#14AE5C"/>
<path d="M27.678 10.1604L27.6819 10.1483L30.6113 13.0777C33.7962 16.2626 33.7962 21.4264 30.6113 24.6113C27.4264 27.7962 22.2626 27.7962 19.0777 24.6113L16.1485 21.6821L16.1598 21.6785C16.5803 21.5443 17.1677 21.3267 17.8743 20.9862C19.2888 20.3046 21.1767 19.1319 23.1538 17.1548C25.1309 15.1776 26.3038 13.2896 26.9855 11.875C27.3261 11.1683 27.5437 10.5808 27.678 10.1604Z" fill="#14AE5C"/>
<path d="M7.92845 15.9714C5.00383 17.4576 3 20.4947 3 24C3 28.9705 7.02944 33 12 33C15.5052 33 18.5424 30.9961 20.0285 28.0715C19.1138 27.5937 18.2551 26.9706 17.4867 26.2023L9.79769 18.5132C9.02932 17.7448 8.40624 16.8862 7.92845 15.9714Z" fill="#14AE5C"/>
</svg>
