<svg width="20" height="20" viewBox="0 0 20 20" fill="none" xmlns="http://www.w3.org/2000/svg">
<path fill-rule="evenodd" clip-rule="evenodd" d="M9.58268 2.29199C5.55561 2.29199 2.29102 5.55658 2.29102 9.58366C2.29102 13.6107 5.55561 16.8753 9.58268 16.8753C13.6098 16.8753 16.8743 13.6107 16.8743 9.58366C16.8743 5.55658 13.6098 2.29199 9.58268 2.29199ZM1.04102 9.58366C1.04102 4.86623 4.86525 1.04199 9.58268 1.04199C14.3001 1.04199 18.1243 4.86623 18.1243 9.58366C18.1243 11.7174 17.342 13.6684 16.0484 15.1655L18.7746 17.8917C19.0187 18.1358 19.0187 18.5315 18.7746 18.7756C18.5305 19.0197 18.1348 19.0197 17.8907 18.7756L15.1645 16.0494C13.6675 17.3429 11.7164 18.1253 9.58268 18.1253C4.86525 18.1253 1.04102 14.3011 1.04102 9.58366Z" fill="#0C5591"/>
</svg>
