<svg width="60" height="60" viewBox="0 0 60 60" fill="none" xmlns="http://www.w3.org/2000/svg">
<circle cx="30" cy="30" r="30" fill="#F1F5F8"/>
<path fill-rule="evenodd" clip-rule="evenodd" d="M23.66 16.667H36.34C37.8851 16.667 38.6577 16.667 39.2808 16.8838C40.4624 17.2949 41.39 18.2499 41.7894 19.4663C42 20.1077 42 20.9031 42 22.4937V41.1659C42 42.3102 40.6867 42.9174 39.8559 42.1571C39.3678 41.7105 38.6322 41.7105 38.1441 42.1571L37.5 42.7466C36.6446 43.5294 35.3554 43.5294 34.5 42.7466C33.6446 41.9638 32.3554 41.9638 31.5 42.7466C30.6446 43.5294 29.3554 43.5294 28.5 42.7466C27.6446 41.9638 26.3554 41.9638 25.5 42.7466C24.6446 43.5294 23.3554 43.5294 22.5 42.7466L21.8559 42.1571C21.3678 41.7105 20.6322 41.7105 20.1441 42.1571C19.3133 42.9174 18 42.3102 18 41.1659V22.4937C18 20.9031 18 20.1077 18.2106 19.4663C18.61 18.2499 19.5376 17.2949 20.7192 16.8838C21.3423 16.667 22.1149 16.667 23.66 16.667ZM23.3333 23.0003C22.781 23.0003 22.3333 23.448 22.3333 24.0003C22.3333 24.5526 22.781 25.0003 23.3333 25.0003H24C24.5523 25.0003 25 24.5526 25 24.0003C25 23.448 24.5523 23.0003 24 23.0003H23.3333ZM28 23.0003C27.4477 23.0003 27 23.448 27 24.0003C27 24.5526 27.4477 25.0003 28 25.0003H36.6667C37.219 25.0003 37.6667 24.5526 37.6667 24.0003C37.6667 23.448 37.219 23.0003 36.6667 23.0003H28ZM23.3333 27.667C22.781 27.667 22.3333 28.1147 22.3333 28.667C22.3333 29.2193 22.781 29.667 23.3333 29.667H24C24.5523 29.667 25 29.2193 25 28.667C25 28.1147 24.5523 27.667 24 27.667H23.3333ZM28 27.667C27.4477 27.667 27 28.1147 27 28.667C27 29.2193 27.4477 29.667 28 29.667H36.6667C37.219 29.667 37.6667 29.2193 37.6667 28.667C37.6667 28.1147 37.219 27.667 36.6667 27.667H28ZM23.3333 32.3337C22.781 32.3337 22.3333 32.7814 22.3333 33.3337C22.3333 33.8859 22.781 34.3337 23.3333 34.3337H24C24.5523 34.3337 25 33.8859 25 33.3337C25 32.7814 24.5523 32.3337 24 32.3337H23.3333ZM28 32.3337C27.4477 32.3337 27 32.7814 27 33.3337C27 33.8859 27.4477 34.3337 28 34.3337H36.6667C37.219 34.3337 37.6667 33.8859 37.6667 33.3337C37.6667 32.7814 37.219 32.3337 36.6667 32.3337H28Z" fill="#0C5591"/>
</svg>
